# xmcd
#
# Track frame offsets: 
#        150
#        13340
#        25043
#        39637
#        50620
#        63554
#        75700
#        88529
#        100188
#        111805
#        123223
#        135840
#        149335
#        163545
#        175847
#        189234
#
# Disc length: 2666 seconds
#
# Revision: 0
# Processed by: cddbd v1.5.2PL0 Copyright (c) Steve Scherf et al.
# Submitted via: ExactAudioCopy v1.0b1
#
DISCID=cb0a6810
DTITLE=Sam and Dave - Sweet Soul Music
DYEAR=2008
DGENRE=Soul
TTITLE0=Soul Man
TTITLE1=Hold On ! I'm A Comin'
TTITLE2=When Something Is Wrong With Me Baby
TTITLE3=You Don't Know What You Mean To Me
TTITLE4=I Thank You
TTITLE5=You Don't Know Like I Know
TTITLE6=You Got Me Hummin'
TTITLE7=Soothe Me
TTITLE8=Soul Sister, Soul Brother
TTITLE9=Can't You Find Another Way (Of Doing It)
TTITLE10=Said I Wasn't Gonna Tell Nobody
TTITLE11=Don't Pull Your Love
TTITLE12=You Send Me
TTITLE13=Dock Of The Bay
TTITLE14=Gimme Some Lovin'
TTITLE15=Bring It On Home
EXTD=
EXTT0=
EXTT1=
EXTT2=
EXTT3=
EXTT4=
EXTT5=
EXTT6=
EXTT7=
EXTT8=
EXTT9=
EXTT10=
EXTT11=
EXTT12=
EXTT13=
EXTT14=
EXTT15=
PLAYORDER=
